# xmcd
#
# Track frame offsets: 
#        150
#        13695
#        28035
#        41465
#        55522
#        68487
#        82690
#        96530
#        110637
#        126260
#        140347
#        154237
#        168500
#        182712
#        197317
#        211377
#        224990
#        239075
#
# Disc length: 3369 seconds
#
# Revision: 2
# Processed by: cddbd v1.5.2PL0 Copyright (c) Steve Scherf et al.
# Submitted via: ExactAudioCopy v0.95b2
#
DISCID=010d2712
DTITLE=Charley Patton - ''Screamin' and Hollerin' the Blues'' - by The
DTITLE=Masked Marvel Disc 1
DYEAR=2001
DGENRE=Blues
TTITLE0=Pony Blues
TTITLE1=A Spoonful Blues
TTITLE2=Down The Dirt Road Blues
TTITLE3=Prayer Of Death, Part 1
TTITLE4=Prayer of Death, Part 2
TTITLE5=Screamin' and Hollerin' the Blues
TTITLE6=Banty Rooster Blues
TTITLE7=Tom Rushen Blues
TTITLE8=It Won't Be Long
TTITLE9=Shake It and Break It (But Don't Let It Fall Mama)
TTITLE10=Pea Vine Blues
TTITLE11=Mississippi Boweavil Blues
TTITLE12=Lord I'm Discouraged
TTITLE13=I'm Goin' Home
TTITLE14=Snatch It and Grab It
TTITLE15=A Rag Blues
TTITLE16=How Come Mama Blues
TTITLE17=Voice Throwin' Blues
EXTD=Tracks 1-14, Charley Patton, June 1929\nTracks 15-18, Walter Hawk
EXTD=ins
EXTT0=Charley Patton, 1929 (tracks 1-14)
EXTT1=
EXTT2=
EXTT3=
EXTT4=
EXTT5=
EXTT6=
EXTT7=
EXTT8=
EXTT9=
EXTT10=
EXTT11=
EXTT12=
EXTT13=
EXTT14=Walter Hawkins (tracks 15-18)
EXTT15=
EXTT16=
EXTT17=
PLAYORDER=
